<svg xmlns="http://www.w3.org/2000/svg" viewBox="0 0 400 800" width="400" height="800">
  <!-- Background -->
  <rect width="400" height="800" fill="#f5f5f5"/>
  
  <!-- Head -->
  <circle cx="200" cy="150" r="80" fill="#e0e0e0" stroke="#333" stroke-width="2"/>
  
  <!-- Body/Dress -->
  <path d="M120,230 L280,230 L300,700 L100,700 Z" fill="#e0e0e0" stroke="#333" stroke-width="2"/>
  
  <!-- Ruffled Sleeves -->
  <path d="M120,230 C100,250 80,300 60,350 C50,380 40,400 30,410" fill="none" stroke="#333" stroke-width="2"/>
  <path d="M280,230 C300,250 320,300 340,350 C350,380 360,400 370,410" fill="none" stroke="#333" stroke-width="2"/>
  
  <!-- Ruffles on sleeves -->
  <path d="M60,280 C70,285 80,285 90,280" fill="none" stroke="#333" stroke-width="2"/>
  <path d="M50,310 C60,315 70,315 80,310" fill="none" stroke="#333" stroke-width="2"/>
  <path d="M40,340 C50,345 60,345 70,340" fill="none" stroke="#333" stroke-width="2"/>
  
  <path d="M340,280 C330,285 320,285 310,280" fill="none" stroke="#333" stroke-width="2"/>
  <path d="M350,310 C340,315 330,315 320,310" fill="none" stroke="#333" stroke-width="2"/>
  <path d="M360,340 C350,345 340,345 330,340" fill="none" stroke="#333" stroke-width="2"/>
  
  <!-- Fan in hand -->
  <path d="M100,410 C150,380 200,370 250,380 C300,390 320,410 330,430" fill="#e0e0e0" stroke="#333" stroke-width="2"/>
  
  <!-- Simple face features -->
  <ellipse cx="180" cy="140" rx="8" ry="10" fill="#333"/>
  <ellipse cx="220" cy="140" rx="8" ry="10" fill="#333"/>
  <path d="M190,180 C195,185 205,185 210,180" fill="none" stroke="#333" stroke-width="2"/>
</svg> 